{"title":"Sluts On Social Media XXX - All Disc - NEW 2014 - 1 SEPT. 2014","uid":10945222,"size":4227652748,"categoryP":"porn","categoryS":"movies","magnet":"?xt=urn:btih:c4e5f6082551ef5e2ba357aec32fe3996eb10067&amp;dn=Sluts+On+Social+Media+XXX+-+All+Disc+-+NEW+2014+-+1+SEPT.+2014&amp;tr=udp%3A%2F%2Ftracker.openbittorrent.com%3A80&amp;tr=udp%3A%2F%2Fopen.demonii.com%3A1337&amp;tr=udp%3A%2F%2Ftracker.coppersurfer.tk%3A6969&amp;tr=udp%3A%2F%2Fexodus.desync.com%3A6969","seeders":0,"leechers":0,"uploader":"iH2OSO4","files":-1,"time":1409592718,"description":"Sluts On Social Media XXX - All Disc - NEW 2014 - 1 SEPT. 2014\n\nSexting just got a whole lot better with this line up of trending sluts! Follow Mia Malkova (@MiaMalkova), Bonnie Rotten (@TheBonnieRotten), Dakota Skye (@imDakotaSkye), and more hot stars while they get fucked into the 21st century. Sluts On Social Media DVD video They're superstar sluts, and they're ready to give you 12 scenes of scorching hot sex and more!\n\nSOURCE :   &lt;a href=&quot; http://nuscotower.com/i/sl6526_d.html&quot; rel=&quot;nofollow&quot; target=&quot;_NEW&quot;&gt; http://nuscotower.com/i/sl6526_d.html&lt;/a&gt;\n\nGeneral\nSluts.On.Social.Media.DiSC.1.And.2.XXX.2014.DVDRip-eUDOXiU - 1.mp4\nFormat                           : MPEG-4\nFormat profile                   : Base Media\nCodec ID                         : isom\nFile size                        : 1.82 GiB\nDuration                         : 2h 36mn\nOverall bit rate                 : 1 663 Kbps\nEncoded date                     : UTC 2014-09-01 04:56:54\nTagged date                      : UTC 2014-09-01 04:56:54\n\nVideo\nID                               : 1\nFormat                           : MPEG-4 Visual\nFormat profile                   : Simple@L1\nFormat settings, BVOP            : No\nFormat settings, QPel            : No\nFormat settings, GMC             : No warppoints\nFormat settings, Matrix          : Default (H.263)\nCodec ID                         : 20\nDuration                         : 2h 36mn\nBit rate mode                    : Variable\nBit rate                         : 1 535 Kbps\nMaximum bit rate                 : 3 056 Kbps\nWidth                            : 856 pixels\nHeight                           : 480 pixels\nDisplay aspect ratio             : 16:9\nFrame rate mode                  : Constant\nFrame rate                       : 29.970 fps\nColor space                      : YUV\nChroma subsampling               : 4:2:0\nBit depth                        : 8 bits\nScan type                        : Progressive\nCompression mode                 : Lossy\nBits/(Pixel*Frame)               : 0.125\nStream size                      : 1.68 GiB (92%)\nWriting library                  : Lavc53.8.0\nEncoded date                     : UTC 2014-09-01 04:56:54\nTagged date                      : UTC 2014-09-01 04:58:57\n\nAudio\nID                               : 2\nFormat                           : AAC\nFormat/Info                      : Advanced Audio Codec\nFormat profile                   : LC\nCodec ID                         : 40\nDuration                         : 2h 36mn\nBit rate mode                    : Variable\nBit rate                         : 125 Kbps\nMaximum bit rate                 : 261 Kbps\nChannel(s)                       : 2 channels\nChannel positions                : Front: L R\nSampling rate                    : 44.1 KHz\nCompression mode                 : Lossy\nStream size                      : 140 MiB (8%)\nEncoded date                     : UTC 2014-09-01 04:58:26\nTagged date                      : UTC 2014-09-01 04:58:57\n\n////////////////\n\nGeneral\nSluts.On.Social.Media.DiSC.1.And.2.XXX.2014.DVDRip-eUDOXiU - 2.mp4\nFormat                           : MPEG-4\nFormat profile                   : Base Media\nCodec ID                         : isom\nFile size                        : 2.12 GiB\nDuration                         : 3h 2mn\nOverall bit rate                 : 1 663 Kbps\nEncoded date                     : UTC 2014-09-01 10:18:00\nTagged date                      : UTC 2014-09-01 10:18:00\n\nVideo\nID                               : 1\nFormat                           : MPEG-4 Visual\nFormat profile                   : Simple@L1\nFormat settings, BVOP            : No\nFormat settings, QPel            : No\nFormat settings, GMC             : No warppoints\nFormat settings, Matrix          : Default (H.263)\nCodec ID                         : 20\nDuration                         : 3h 2mn\nBit rate mode                    : Variable\nBit rate                         : 1 535 Kbps\nMaximum bit rate                 : 3 412 Kbps\nWidth                            : 856 pixels\nHeight                           : 480 pixels\nDisplay aspect ratio             : 16:9\nFrame rate mode                  : Constant\nFrame rate                       : 23.976 fps\nColor space                      : YUV\nChroma subsampling               : 4:2:0\nBit depth                        : 8 bits\nScan type                        : Progressive\nCompression mode                 : Lossy\nBits/(Pixel*Frame)               : 0.156\nStream size                      : 1.96 GiB (92%)\nWriting library                  : Lavc53.8.0\nEncoded date                     : UTC 2014-09-01 10:18:00\nTagged date                      : UTC 2014-09-01 10:19:27\n\nAudio\nID                               : 2\nFormat                           : AAC\nFormat/Info                      : Advanced Audio Codec\nFormat profile                   : LC\nCodec ID                         : 40\nDuration                         : 3h 2mn\nBit rate mode                    : Variable\nBit rate                         : 126 Kbps\nMaximum bit rate                 : 230 Kbps\nChannel(s)                       : 2 channels\nChannel positions                : Front: L R\nSampling rate                    : 44.1 KHz\nCompression mode                 : Lossy\nStream size                      : 164 MiB (8%)\nEncoded date                     : UTC 2014-09-01 10:19:05\nTagged date                      : UTC 2014-09-01 10:19:27\n","torrent":{"xt":"urn:btih:c4e5f6082551ef5e2ba357aec32fe3996eb10067","amp;dn":"Sluts+On+Social+Media+XXX+-+All+Disc+-+NEW+2014+-+1+SEPT.+2014","amp;tr":["udp%3A%2F%2Ftracker.openbittorrent.com%3A80","udp%3A%2F%2Fopen.demonii.com%3A1337","udp%3A%2F%2Ftracker.coppersurfer.tk%3A6969","udp%3A%2F%2Fexodus.desync.com%3A6969"],"infoHash":"c4e5f6082551ef5e2ba357aec32fe3996eb10067","infoHashBuffer":{"type":"Buffer","data":[196,229,246,8,37,81,239,94,43,163,87,174,195,47,227,153,110,177,0,103]},"announce":[],"urlList":[]}}